<?xml version="1.0" encoding="utf-8"?>
<!-- Generator: Adobe Illustrator 19.0.1, SVG Export Plug-In . SVG Version: 6.00 Build 0)  -->
<svg version="1.1" id="Layer_1" xmlns="http://www.w3.org/2000/svg" xmlns:xlink="http://www.w3.org/1999/xlink" x="0px" y="0px"
	 viewBox="0 0 185 45" enable-background="new 0 0 185 45" xml:space="preserve">
<g>
	<g>
		<path fill="#FFFFFF" d="M11.6,38.9c-1.1,1.4-2.8,2.1-5.1,2.1c-1.6,0-2.9-0.4-4-1.2c-1.1-0.8-1.7-1.7-2.1-2.6
			c-0.2-0.5,0.5-0.8,0.7-0.3c0.4,0.7,1.1,1.6,2,2.3c1,0.7,2.1,1,3.4,1c1.1,0,2-0.2,2.8-0.5c0.8-0.4,1.4-0.9,1.8-1.5
			c0.5-0.7,0.8-1.4,1.1-2.3c0.2-0.9,0.3-1.9,0.3-2.9V14.1c0-0.6,0.8-0.6,0.8,0v19C13.4,35.6,12.8,37.5,11.6,38.9z"/>
		<path fill="#FFFFFF" d="M6.5,41.3c-1.6,0-3-0.4-4.2-1.3c-1-0.8-1.7-1.6-2.2-2.7c-0.2-0.4,0-0.7,0.3-0.8c0.3-0.1,0.7-0.1,0.9,0.3
			c0.2,0.4,0.8,1.4,2,2.2c0.9,0.7,2,1,3.2,1c1,0,1.9-0.2,2.6-0.5c0.7-0.3,1.3-0.8,1.8-1.5c0.5-0.6,0.8-1.4,1-2.2
			c0.2-0.9,0.3-1.8,0.3-2.9V14.1c0-0.2,0.1-0.5,0.3-0.6c0.2-0.1,0.5-0.1,0.7,0c0.2,0.1,0.3,0.3,0.3,0.6v19c0,2.5-0.6,4.5-1.8,6l0,0
			C10.6,40.6,8.9,41.3,6.5,41.3z M0.8,37C0.7,37,0.7,37,0.8,37c-0.2,0.1-0.2,0.1-0.1,0.2c0.4,1,1.1,1.8,2,2.5
			c1.1,0.8,2.4,1.2,3.9,1.2c2.2,0,3.8-0.7,4.9-2c1.1-1.4,1.7-3.3,1.7-5.7v-19c0-0.1,0-0.2-0.1-0.2c-0.1,0-0.1,0-0.2,0
			c0,0-0.1,0.1-0.1,0.2l0,18.9c0,1.1-0.1,2.1-0.3,3c-0.2,0.9-0.6,1.7-1.1,2.4c-0.5,0.7-1.2,1.2-1.9,1.6c-0.8,0.4-1.7,0.6-2.9,0.6
			c-1.3,0-2.5-0.4-3.5-1.1c-0.9-0.6-1.6-1.5-2.1-2.4C0.8,37,0.8,37,0.8,37z"/>
	</g>
	<g>
		<g>
			<path fill="#FFFFFF" d="M18.8,18.7c-0.2,0-0.4-0.1-0.6-0.3C18,18.2,18,18,18,17.7c0-0.3,0.1-0.5,0.3-0.7c0.2-0.2,0.4-0.3,0.6-0.3
				c0.2,0,0.4,0.1,0.6,0.3c0.2,0.2,0.3,0.4,0.3,0.7c0,0.3-0.1,0.5-0.3,0.7C19.2,18.6,19,18.7,18.8,18.7z"/>
			<path fill="#FFFFFF" d="M18.8,18.9c-0.3,0-0.6-0.1-0.8-0.3c-0.2-0.2-0.3-0.5-0.3-0.9c0-0.3,0.1-0.6,0.3-0.8
				c0.4-0.4,1.1-0.4,1.5,0c0.2,0.2,0.3,0.5,0.3,0.8c0,0.4-0.1,0.7-0.4,0.9C19.3,18.8,19.1,18.9,18.8,18.9z M18.8,17
				c-0.2,0-0.3,0.1-0.4,0.2c-0.1,0.1-0.2,0.3-0.2,0.5c0,0.2,0.1,0.4,0.2,0.5c0.2,0.2,0.5,0.3,0.8,0c0.1-0.1,0.2-0.3,0.2-0.5
				c0-0.2-0.1-0.4-0.2-0.5C19.1,17.1,19,17,18.8,17z"/>
		</g>
		<g>
			<path fill="#FFFFFF" d="M18.4,39.9l0-16.5c0-0.5,0.8-0.6,0.8,0l0,16.5C19.2,40.4,18.4,40.4,18.4,39.9z"/>
			<path fill="#FFFFFF" d="M18.8,40.5c-0.4,0-0.7-0.3-0.7-0.6V23.3c0-0.6,0.8-0.8,1.1-0.5c0.1,0.1,0.2,0.3,0.2,0.5l0,16.5
				C19.5,40.3,19.1,40.5,18.8,40.5z M18.8,23.2c0,0-0.2,0-0.2,0.2v16.5c0,0.1,0.1,0.1,0.2,0.1c0.1,0,0.2,0,0.2-0.1l0-16.5
				c0-0.1,0-0.1,0-0.1C18.9,23.2,18.9,23.2,18.8,23.2z"/>
		</g>
	</g>
	<g>
		<g>
			<path fill="#FFFFFF" d="M22.6,23.4c-0.1-0.4,0.6-0.9,0.9,0c0,0,5.8,15.3,6.2,16c0.4,0.8-0.4,1.1-0.7,0.3L22.6,23.4z"/>
			<path fill="#FFFFFF" d="M29.5,40.5C29.5,40.5,29.5,40.5,29.5,40.5c-0.4,0-0.6-0.3-0.7-0.6l-6.4-16.4c-0.1-0.3,0.1-0.7,0.4-0.8
				c0.3-0.1,0.7,0,1,0.6c2,5.3,5.9,15.4,6.2,16c0.3,0.5,0.1,0.8,0,0.9C29.9,40.4,29.7,40.5,29.5,40.5z M22.8,23.3l6.4,16.3
				c0.1,0.2,0.2,0.3,0.3,0.3c0,0,0.1,0,0.1,0c0,0,0-0.2-0.1-0.4c-0.4-0.8-6-15.4-6.2-16.1c-0.1-0.2-0.2-0.4-0.3-0.3
				C22.9,23.2,22.8,23.3,22.8,23.3z"/>
		</g>
		<g>
			<path fill="#FFFFFF" d="M30,39.8c-0.3,0.7-1.1,0.5-0.7-0.3c0.4-0.8,6.2-16,6.2-16c0.3-0.9,1-0.4,0.9,0L30,39.8z"/>
			<path fill="#FFFFFF" d="M29.5,40.5c-0.2,0-0.4-0.1-0.5-0.2c-0.1-0.1-0.2-0.4,0-0.9c0.3-0.6,4.2-10.7,6.2-16
				c0.2-0.6,0.7-0.7,1-0.6c0.3,0.1,0.5,0.5,0.4,0.8l-6.4,16.4C30.1,40.2,29.8,40.4,29.5,40.5C29.5,40.5,29.5,40.5,29.5,40.5z
				 M36,23.2c-0.1,0-0.2,0.1-0.3,0.3c-0.2,0.6-5.8,15.3-6.2,16.1c-0.1,0.2-0.1,0.3-0.1,0.4c0,0,0,0,0.1,0c0.1,0,0.2-0.1,0.3-0.3l0,0
				l6.4-16.4C36.2,23.3,36.1,23.2,36,23.2C36,23.2,36,23.2,36,23.2z"/>
		</g>
	</g>
	<g>
		<path fill="#FFFFFF" d="M38.3,31.4c0,1,0.2,2.1,0.5,3.1c0.3,1,0.8,1.9,1.4,2.7c0.6,0.8,1.4,1.5,2.4,2c1,0.5,2.1,0.7,3.4,0.7
			c1.3,0,2.5-0.3,3.6-0.8c1-0.5,1.8-1.1,2.4-2c0.4-0.5,1,0,0.7,0.3c-0.4,0.7-1.7,1.8-2.8,2.4c-1.1,0.6-2.4,0.9-3.9,0.9
			c-1.3,0-2.4-0.2-3.5-0.7c-1-0.5-1.9-1.1-2.7-1.9c-0.8-0.8-1.3-1.8-1.7-2.9s-0.6-2.4-0.6-3.7c0-1.3,0.2-2.5,0.6-3.6
			c0.4-1.1,1-2,1.7-2.8c0.7-0.8,1.6-1.4,2.6-1.8c1-0.4,2.1-0.7,3.2-0.7c1.3,0,2.5,0.2,3.5,0.7c1,0.5,1.8,1.1,2.5,1.9
			c0.7,0.8,1.1,1.6,1.5,2.6c0.3,1,0.5,2,0.5,3c0,0,0,0,0,0.1c0,0.3-0.3,0.6-0.6,0.6C52.6,31.4,38.3,31.4,38.3,31.4z M52.7,30.7
			c0-1.1-0.2-2.1-0.6-3.1c-0.4-0.9-0.8-1.7-1.5-2.4c-0.6-0.7-1.4-1.2-2.2-1.5c-0.9-0.4-1.8-0.5-2.9-0.5c-1.3,0-2.4,0.3-3.3,0.8
			c-0.9,0.5-1.7,1.2-2.2,2c-0.6,0.8-1,1.6-1.3,2.5c-0.3,0.9-0.4,1.6-0.4,2.3L52.7,30.7z"/>
		<path fill="#FFFFFF" d="M46,41c-1.3,0-2.5-0.2-3.6-0.7c-1.1-0.5-2-1.1-2.8-2c-0.8-0.8-1.4-1.9-1.8-3c-0.4-1.2-0.6-2.4-0.6-3.8
			c0-1.3,0.2-2.6,0.6-3.7c0.4-1.1,1-2.1,1.8-2.9c0.8-0.8,1.7-1.5,2.7-1.9c1-0.4,2.1-0.7,3.3-0.7c1.4,0,2.6,0.2,3.6,0.7
			c1,0.5,1.9,1.1,2.6,1.9c0.7,0.8,1.2,1.7,1.5,2.7c0.3,1,0.5,2,0.5,3.1v0.1c0,0.5-0.5,0.8-0.9,0.8H38.5c0,0.9,0.2,1.9,0.5,2.8
			c0.3,1,0.8,1.9,1.4,2.7c0.6,0.8,1.4,1.4,2.3,1.9c0.9,0.5,2,0.7,3.3,0.7c1.3,0,2.5-0.3,3.5-0.8c1.1-0.6,1.7-1.1,2.3-1.9
			c0.2-0.2,0.4-0.4,0.6-0.3c0.2,0,0.4,0.2,0.5,0.4c0.1,0.2,0.1,0.4-0.1,0.5c-0.5,0.7-1.7,1.8-2.9,2.4C48.8,40.7,47.5,41,46,41z
			 M45.6,22.8c-1.1,0-2.1,0.2-3.1,0.6c-1,0.4-1.8,1-2.5,1.8c-0.7,0.8-1.3,1.7-1.7,2.8c-0.4,1.1-0.6,2.2-0.6,3.5
			c0,1.3,0.2,2.5,0.6,3.6c0.4,1.1,1,2.1,1.7,2.9c0.7,0.8,1.6,1.4,2.6,1.9c1,0.4,2.1,0.7,3.4,0.7c1.4,0,2.7-0.3,3.8-0.8
			c1.1-0.5,2.3-1.6,2.7-2.3l0-0.1c0,0-0.1-0.1-0.1-0.1c-0.1,0-0.1,0.1-0.2,0.1c-0.7,0.9-1.4,1.5-2.5,2.1c-1.1,0.5-2.3,0.8-3.7,0.8
			c-1.3,0-2.5-0.3-3.5-0.8c-1-0.5-1.8-1.2-2.5-2c-0.6-0.8-1.1-1.8-1.5-2.8c-0.3-1-0.5-2.1-0.5-3.2v-0.2h14.9c0.2,0,0.4-0.1,0.4-0.3
			v-0.1c0-1-0.2-2-0.5-2.9c-0.3-0.9-0.8-1.8-1.4-2.5c-0.6-0.7-1.4-1.3-2.4-1.8C48.1,23,46.9,22.8,45.6,22.8z M53,31H38.1v-0.2
			c0-0.7,0.1-1.5,0.4-2.3c0.3-0.9,0.7-1.7,1.3-2.5c0.6-0.8,1.4-1.5,2.3-2c1-0.6,2.1-0.8,3.4-0.8c1.1,0,2.1,0.2,3,0.6
			c0.9,0.4,1.7,0.9,2.3,1.6c0.6,0.7,1.1,1.5,1.5,2.4c0.4,0.9,0.6,2,0.6,3.1L53,31z M38.6,30.5h13.9c0-1-0.2-1.9-0.6-2.7
			c-0.3-0.9-0.8-1.7-1.4-2.3c-0.6-0.6-1.3-1.1-2.1-1.5c-0.8-0.3-1.8-0.5-2.8-0.5c-1.2,0-2.3,0.3-3.2,0.8c-0.9,0.5-1.6,1.2-2.2,1.9
			c-0.6,0.8-1,1.6-1.2,2.4C38.7,29.3,38.6,29.9,38.6,30.5z"/>
	</g>
	<g>
		<g>
			<path fill="#FFFFFF" d="M60.7,40.1L53,14.2c-0.2-0.5,0.6-0.8,0.8-0.3l7.7,25.8C61.7,40.4,60.8,40.6,60.7,40.1z"/>
			<path fill="#FFFFFF" d="M61.1,40.6c-0.1,0-0.1,0-0.2,0c-0.2-0.1-0.4-0.2-0.5-0.5l-7.7-25.9c-0.1-0.2,0-0.5,0.1-0.6
				c0.2-0.2,0.4-0.3,0.7-0.2c0.2,0.1,0.4,0.2,0.5,0.5l7.7,25.8c0.1,0.3,0.1,0.6-0.1,0.8C61.5,40.6,61.3,40.6,61.1,40.6z M53.4,13.9
				c-0.1,0-0.1,0-0.2,0.1c0,0,0,0.1,0,0.1L60.9,40c0,0.1,0.1,0.1,0.1,0.1c0.1,0,0.1,0,0.2,0c0.1-0.1,0.1-0.2,0-0.3L53.5,14
				C53.5,13.9,53.5,13.9,53.4,13.9C53.4,13.9,53.4,13.9,53.4,13.9z"/>
		</g>
		<g>
			<path fill="#FFFFFF" d="M76.2,40.1l-7.7-25.9c-0.2-0.5,0.6-0.8,0.8-0.3l7.7,25.8C77.2,40.5,76.3,40.6,76.2,40.1z"/>
			<path fill="#FFFFFF" d="M76.6,40.7c-0.1,0-0.1,0-0.2,0c-0.2-0.1-0.4-0.2-0.5-0.5l-7.7-25.9c-0.1-0.2,0-0.5,0.1-0.6
				c0.2-0.2,0.4-0.3,0.7-0.2c0.2,0.1,0.4,0.2,0.5,0.5l7.7,25.8c0.1,0.3,0.1,0.6-0.1,0.8C76.9,40.6,76.7,40.7,76.6,40.7z M68.8,13.9
				c-0.1,0-0.1,0-0.2,0.1c0,0,0,0.1,0,0.1L76.4,40c0,0.1,0.1,0.1,0.1,0.1c0.1,0,0.1,0,0.2,0c0.1-0.1,0.1-0.2,0-0.3L69,14
				C69,13.9,68.9,13.9,68.8,13.9C68.9,13.9,68.9,13.9,68.8,13.9z"/>
		</g>
		<g>
			<path fill="#FFFFFF" d="M60.8,39.8l7.6-25.9c0.1-0.6,1-0.3,0.8,0.2l-7.6,25.8C61.5,40.7,60.6,40.4,60.8,39.8z"/>
			<path fill="#FFFFFF" d="M61.2,40.6c-0.2,0-0.4-0.1-0.5-0.2c-0.2-0.2-0.2-0.4-0.1-0.7l7.6-25.9c0-0.2,0.2-0.4,0.4-0.5
				c0.2-0.1,0.5,0,0.7,0.2c0.2,0.2,0.2,0.4,0.2,0.7L61.9,40c-0.1,0.3-0.3,0.6-0.5,0.6C61.3,40.6,61.2,40.6,61.2,40.6z M68.8,13.8
				C68.8,13.8,68.8,13.8,68.8,13.8c-0.1,0-0.1,0-0.1,0.1l-7.6,26c0,0.1,0,0.1,0,0.2c0,0,0.1,0.1,0.2,0c0.1,0,0.1-0.1,0.2-0.3
				L69,14.1c0-0.1,0-0.1,0-0.2C68.9,13.9,68.8,13.8,68.8,13.8z"/>
		</g>
		<g>
			<path fill="#FFFFFF" d="M76.2,39.9l7.6-25.9c0.1-0.6,1-0.3,0.8,0.2L77,40C76.8,40.7,76,40.4,76.2,39.9z"/>
			<path fill="#FFFFFF" d="M76.6,40.7c-0.2,0-0.4-0.1-0.5-0.2c-0.2-0.2-0.2-0.4-0.1-0.7l7.6-25.9c0-0.2,0.2-0.4,0.4-0.5
				c0.2-0.1,0.5,0,0.7,0.2c0.2,0.2,0.2,0.4,0.2,0.7L77.3,40c-0.1,0.3-0.3,0.6-0.5,0.6C76.7,40.7,76.6,40.7,76.6,40.7z M84.2,13.9
				C84.2,13.9,84.1,13.9,84.2,13.9c-0.1,0-0.1,0-0.1,0.1l-7.6,26c0,0.1,0,0.1,0,0.2c0,0,0.1,0.1,0.2,0c0.1,0,0.1-0.1,0.2-0.3
				l7.6-25.8c0-0.1,0-0.1,0-0.2C84.3,13.9,84.2,13.9,84.2,13.9z"/>
		</g>
	</g>
	<g>
		<path fill="#FFFFFF" d="M102.1,31.6c0,1.3-0.2,2.6-0.7,3.7c-0.4,1.1-1,2.1-1.8,2.9c-0.8,0.8-1.7,1.4-2.8,1.9
			c-1.1,0.4-2.3,0.7-3.6,0.7c-1.3,0-2.5-0.2-3.6-0.7c-1.1-0.4-2-1.1-2.8-1.9c-0.8-0.8-1.4-1.8-1.8-2.9c-0.4-1.1-0.7-2.3-0.7-3.7
			s0.2-2.6,0.7-3.7s1-2.1,1.8-2.9c0.8-0.8,1.7-1.4,2.8-1.9c1.1-0.4,2.3-0.7,3.6-0.7c1.3,0,2.5,0.2,3.6,0.7c1.1,0.4,2.1,1.1,2.8,1.9
			c0.8,0.8,1.4,1.7,1.8,2.9C101.9,29,102.1,30.2,102.1,31.6z M101.3,31.6c0-1.1-0.2-2.2-0.6-3.2c-0.4-1-0.9-1.9-1.6-2.7
			c-0.7-0.8-1.6-1.4-2.6-1.8c-1-0.4-2.1-0.7-3.4-0.7c-1.3,0-2.4,0.2-3.4,0.7c-1,0.4-1.8,1-2.5,1.8c-0.7,0.8-1.2,1.6-1.6,2.7
			c-0.4,1-0.6,2.1-0.6,3.2c0,1.2,0.2,2.3,0.6,3.3c0.4,1,0.9,1.9,1.6,2.7c0.7,0.8,1.6,1.4,2.5,1.8c1,0.4,2.1,0.7,3.4,0.7
			c1.3,0,2.4-0.2,3.4-0.7c1-0.4,1.9-1.1,2.6-1.8c0.7-0.8,1.2-1.6,1.6-2.7C101.1,33.8,101.3,32.7,101.3,31.6z"/>
		<path fill="#FFFFFF" d="M93.1,41c-1.3,0-2.6-0.2-3.7-0.7c-1.1-0.5-2.1-1.1-2.9-1.9c-0.8-0.8-1.5-1.8-1.9-3
			c-0.4-1.1-0.7-2.4-0.7-3.8s0.2-2.6,0.7-3.8c0.4-1.1,1.1-2.1,1.9-2.9c0.8-0.8,1.8-1.5,2.9-1.9c1.1-0.5,2.4-0.7,3.7-0.7
			c1.3,0,2.6,0.2,3.7,0.7c1.1,0.5,2.1,1.1,2.9,1.9c0.8,0.8,1.5,1.8,1.9,2.9c0.4,1.1,0.7,2.4,0.7,3.8s-0.2,2.6-0.7,3.8
			c-0.4,1.1-1.1,2.1-1.9,3c-0.8,0.8-1.8,1.5-2.9,1.9C95.7,40.7,94.5,41,93.1,41z M93.1,22.8c-1.3,0-2.5,0.2-3.5,0.7
			c-1.1,0.4-2,1-2.7,1.8c-0.8,0.8-1.4,1.7-1.8,2.8c-0.4,1.1-0.6,2.3-0.6,3.6c0,1.3,0.2,2.5,0.6,3.6c0.4,1.1,1,2,1.8,2.8
			c0.8,0.8,1.7,1.4,2.7,1.8c1.1,0.4,2.2,0.7,3.5,0.7s2.5-0.2,3.5-0.7c1.1-0.4,2-1,2.8-1.8c0.8-0.8,1.4-1.7,1.8-2.8
			c0.4-1.1,0.6-2.3,0.6-3.6c0-1.3-0.2-2.5-0.6-3.6c-0.4-1.1-1-2-1.8-2.8c-0.8-0.8-1.7-1.4-2.8-1.8C95.6,23,94.4,22.8,93.1,22.8z
			 M93.1,40.3c-1.3,0-2.5-0.2-3.5-0.7c-1-0.5-1.9-1.1-2.6-1.9c-0.7-0.8-1.3-1.7-1.7-2.8c-0.4-1-0.6-2.2-0.6-3.4
			c0-1.2,0.2-2.3,0.6-3.3c0.4-1,0.9-2,1.7-2.8c0.7-0.8,1.6-1.4,2.6-1.8c1-0.4,2.2-0.7,3.5-0.7c1.3,0,2.5,0.2,3.5,0.7
			c1,0.4,1.9,1.1,2.6,1.8c0.7,0.8,1.3,1.7,1.7,2.8c0.4,1,0.6,2.2,0.6,3.3c0,1.2-0.2,2.3-0.6,3.4c-0.4,1-0.9,2-1.7,2.8
			c-0.7,0.8-1.6,1.4-2.6,1.9C95.6,40,94.4,40.3,93.1,40.3z M93.1,23.5c-1.2,0-2.3,0.2-3.3,0.6c-1,0.4-1.8,1-2.5,1.7
			c-0.7,0.7-1.2,1.6-1.6,2.6c-0.4,1-0.5,2-0.5,3.2c0,1.1,0.2,2.2,0.5,3.2c0.4,1,0.9,1.9,1.6,2.6c0.7,0.7,1.5,1.3,2.5,1.8
			c1,0.4,2.1,0.6,3.3,0.6c1.2,0,2.3-0.2,3.3-0.7s1.8-1,2.5-1.8s1.2-1.6,1.6-2.6c0.4-1,0.5-2.1,0.5-3.2c0-1.1-0.2-2.2-0.5-3.2
			c-0.4-1-0.9-1.8-1.6-2.6c-0.7-0.7-1.5-1.3-2.5-1.7C95.5,23.7,94.4,23.5,93.1,23.5z"/>
	</g>
	<g>
		<path fill="#FFFFFF" d="M109,23.6c1.1-0.8,2.3-1.2,3.5-1.2c0.1,0-0.1,0,0,0c0.1,0,0.4,0,0.4,0c0.5,0.1,0.4,0.8-0.2,0.7
			c0,0-0.1,0-0.1,0c-0.1,0,0.2,0,0.1,0c-1.1,0-2,0.2-2.8,0.7c-0.8,0.5-1.4,1.1-1.9,1.9c-0.5,0.8-0.9,1.7-1.1,2.6
			c-0.2,1-0.4,1.9-0.4,2.9v8.7c0,0.5-0.8,0.5-0.8,0V27.3c0-0.3,0-0.6,0-1c0-0.4,0-0.8,0-1.2c0-0.4,0-0.8-0.1-1.2
			c0-0.4-0.1-0.6-0.1-0.6c0-0.5,0.7-0.5,0.8,0c0,0,0,0.2,0.1,0.6c0,0.4,0,0.8,0,1.2c0,0.4,0,0.9,0,1.3c0,0.4,0,0.8,0,1.1h0.1
			C107.1,25.7,107.9,24.4,109,23.6z"/>
		<path fill="#FFFFFF" d="M106.2,40.5C106.2,40.5,106.2,40.5,106.2,40.5c-0.4,0-0.7-0.3-0.7-0.6V27.3c0-0.3,0-0.6,0-1l0-1.2
			c0-0.4,0-0.8-0.1-1.2c0-0.3-0.1-0.6-0.1-0.6c0-0.4,0.2-0.6,0.6-0.7c0.3,0,0.7,0.1,0.7,0.6c0,0,0,0.2,0.1,0.6l0.1,2.4
			c0.5-1.2,1.2-2.2,2.1-2.8l0,0c1.1-0.8,2.3-1.2,3.6-1.2l0.5,0c0.3,0.1,0.6,0.4,0.5,0.7c-0.1,0.3-0.3,0.5-0.8,0.5
			c-1,0-1.9,0.2-2.6,0.7c-0.7,0.5-1.3,1.1-1.8,1.8c-0.5,0.8-0.8,1.6-1.1,2.5c-0.2,0.9-0.3,1.9-0.3,2.8v8.7
			C106.9,40.3,106.6,40.5,106.2,40.5z M105.9,23.3c0,0,0,0.2,0.1,0.6c0,0.4,0,0.8,0.1,1.2l0,1.2c0,0.4,0,0.7,0,1v12.6
			c0,0.1,0.1,0.1,0.2,0.1c0,0,0,0,0,0c0,0,0.2,0,0.2-0.1v-8.7c0-1,0.1-1.9,0.4-2.9c0.2-1,0.6-1.9,1.1-2.7c0.5-0.8,1.2-1.5,2-2
			c0.8-0.5,1.7-0.7,2.8-0.8v0l0.2,0c0.2,0,0.3,0,0.3-0.1c0,0,0-0.1-0.1-0.1l-0.4,0c-1.2,0-2.4,0.4-3.4,1.1l0,0c-1,0.7-1.8,2-2.3,3.7
			l-0.1,0.2h-0.5v-0.2c0-0.3,0-0.7,0-1.1l-0.1-2.5c0-0.3-0.1-0.6-0.1-0.6c0-0.2-0.2-0.2-0.2-0.2C105.9,23.2,105.9,23.2,105.9,23.3
			L105.9,23.3z"/>
	</g>
	<g>
		<path fill="#FFFFFF" d="M117,40V12.3c0-0.6,0.8-0.6,0.8,0V40C117.8,40.5,117,40.5,117,40z"/>
		<path fill="#FFFFFF" d="M117.4,40.6c-0.4,0-0.7-0.3-0.7-0.6V12.3c0-0.9,1.3-0.9,1.3,0V40c0,0.2-0.1,0.4-0.2,0.5
			C117.7,40.6,117.6,40.6,117.4,40.6z M117.4,12.2c0,0-0.2,0-0.2,0.2V40c0,0.1,0.1,0.1,0.2,0.1c0,0,0.1,0,0.1,0c0,0,0,0,0-0.1V12.3
			C117.6,12.2,117.5,12.2,117.4,12.2z"/>
	</g>
	<g>
		<path fill="#FFFFFF" d="M138.8,12.4c0-0.6,0.8-0.6,0.8,0v27.3c0,0.6-0.8,0.5-0.8,0v-4.2h-0.1c-0.7,1.7-1.8,3-3.2,3.8
			s-2.9,1.3-4.5,1.3c-1.2,0-2.4-0.2-3.4-0.7c-1.1-0.5-2-1.1-2.7-1.9c-0.8-0.8-1.3-1.8-1.8-2.9c-0.4-1.1-0.6-2.3-0.6-3.6
			c0-1.3,0.2-2.5,0.6-3.6c0.4-1.1,1-2.1,1.8-2.9c0.8-0.8,1.7-1.5,2.7-1.9c1.1-0.5,2.2-0.7,3.4-0.7c1.6,0,3.1,0.4,4.5,1.3
			c1.4,0.9,2.4,2.2,3.2,3.9h0.1V12.4z M123.3,31.7c0,1.1,0.2,2.2,0.5,3.2c0.4,1,0.9,1.9,1.5,2.7c0.7,0.8,1.5,1.4,2.4,1.8
			c1,0.4,2,0.7,3.2,0.7c1.1,0,2.2-0.2,3.1-0.7s1.8-1.1,2.5-1.8c0.7-0.8,1.2-1.6,1.6-2.7c0.4-1,0.6-2.1,0.6-3.2
			c0-1.1-0.2-2.2-0.6-3.2c-0.4-1-0.9-1.9-1.6-2.7c-0.7-0.8-1.5-1.4-2.5-1.8c-1-0.4-2-0.7-3.1-0.7c-1.2,0-2.3,0.2-3.2,0.7
			c-1,0.5-1.8,1.1-2.4,1.8c-0.7,0.8-1.2,1.7-1.5,2.7C123.4,29.5,123.3,30.5,123.3,31.7z"/>
		<path fill="#FFFFFF" d="M131,41c-1.3,0-2.5-0.2-3.5-0.7c-1.1-0.5-2-1.1-2.8-2c-0.8-0.8-1.4-1.8-1.8-3c-0.4-1.1-0.6-2.4-0.6-3.7
			c0-1.3,0.2-2.6,0.6-3.7c0.4-1.1,1-2.2,1.8-3c0.8-0.8,1.7-1.5,2.8-2c1.1-0.5,2.3-0.7,3.5-0.7c1.7,0,3.2,0.5,4.7,1.3
			c1.2,0.8,2.2,1.8,2.9,3.2V12.4c0-0.9,1.3-0.9,1.3,0v27.3c0,0.3-0.1,0.4-0.2,0.5c-0.3,0.3-1.1,0.1-1.1-0.5v-3.3
			c-0.7,1.4-1.7,2.4-2.9,3.2C134.2,40.5,132.7,41,131,41z M131,22.8c-1.2,0-2.3,0.2-3.3,0.7c-1,0.4-1.9,1.1-2.6,1.9
			c-0.7,0.8-1.3,1.7-1.7,2.8c-0.4,1.1-0.6,2.3-0.6,3.5s0.2,2.4,0.6,3.5c0.4,1.1,1,2,1.7,2.8c0.7,0.8,1.6,1.4,2.6,1.8
			c1,0.4,2.1,0.7,3.3,0.7c1.6,0,3.1-0.4,4.4-1.3c1.3-0.8,2.4-2.1,3.1-3.7l0.1-0.1h0.5v4.5c0,0.1,0.1,0.2,0.2,0.2c0,0,0.1,0,0.1,0
			c0,0,0-0.1,0-0.1V12.4c0-0.2-0.1-0.2-0.2-0.2s-0.2,0-0.2,0.2V28h-0.5l-0.1-0.2c-0.7-1.7-1.8-2.9-3.1-3.8
			C134.1,23.2,132.6,22.8,131,22.8z M131,40.3c-1.2,0-2.3-0.2-3.3-0.7c-1-0.5-1.8-1.1-2.5-1.9c-0.7-0.8-1.2-1.7-1.6-2.7
			c-0.4-1-0.6-2.1-0.6-3.3s0.2-2.2,0.6-3.3c0.4-1,0.9-2,1.6-2.8c0.7-0.8,1.5-1.4,2.5-1.9c1-0.5,2.1-0.7,3.3-0.7
			c1.2,0,2.3,0.2,3.2,0.7c1,0.5,1.8,1.1,2.6,1.9c0.7,0.8,1.3,1.7,1.7,2.7c0.4,1,0.6,2.2,0.6,3.3c0,1.2-0.2,2.3-0.6,3.3
			c-0.4,1-1,2-1.7,2.7c-0.7,0.8-1.6,1.4-2.6,1.9C133.3,40,132.2,40.3,131,40.3z M131,23.5c-1.1,0-2.2,0.2-3.1,0.7
			c-0.9,0.4-1.7,1-2.4,1.8c-0.6,0.7-1.1,1.6-1.5,2.6c-0.3,1-0.5,2-0.5,3.1s0.2,2.1,0.5,3.1c0.3,1,0.8,1.9,1.5,2.6
			c0.6,0.7,1.4,1.3,2.4,1.7c0.9,0.4,2,0.6,3.1,0.6c1.1,0,2.1-0.2,3-0.6c0.9-0.4,1.7-1,2.4-1.8c0.7-0.7,1.2-1.6,1.6-2.6
			c0.4-1,0.6-2,0.6-3.2c0-1.1-0.2-2.2-0.6-3.2c-0.4-1-0.9-1.9-1.6-2.6c-0.7-0.7-1.5-1.3-2.4-1.8C133.1,23.7,132.1,23.5,131,23.5z"/>
	</g>
	<g>
		<linearGradient id="SVGID_1_" gradientUnits="userSpaceOnUse" x1="153.0434" y1="-9.9159" x2="153.0434" y2="40.2374">
			<stop  offset="0" style="stop-color:#26C0D9"/>
			<stop  offset="4.402065e-02" style="stop-color:#41C8DE"/>
			<stop  offset="0.125" style="stop-color:#6ED5E6"/>
			<stop  offset="0.2121" style="stop-color:#95E0EC"/>
			<stop  offset="0.304" style="stop-color:#B6EAF2"/>
			<stop  offset="0.4021" style="stop-color:#D1F2F7"/>
			<stop  offset="0.5089" style="stop-color:#E5F8FA"/>
			<stop  offset="0.6286" style="stop-color:#F4FCFD"/>
			<stop  offset="0.7717" style="stop-color:#FCFEFF"/>
			<stop  offset="1" style="stop-color:#FFFFFF"/>
		</linearGradient>
		<path fill="url(#SVGID_1_)" d="M153,40.6c-0.8,0-1.5-0.7-1.5-1.5V2.6c0-0.8,0.7-1.5,1.5-1.5c0.8,0,1.5,0.7,1.5,1.5v36.5
			C154.5,39.9,153.9,40.6,153,40.6z"/>
		<linearGradient id="SVGID_2_" gradientUnits="userSpaceOnUse" x1="142.5591" y1="6.3047" x2="154.5207" y2="6.3047">
			<stop  offset="0" style="stop-color:#26C0D9"/>
			<stop  offset="4.402065e-02" style="stop-color:#41C8DE"/>
			<stop  offset="0.125" style="stop-color:#6ED5E6"/>
			<stop  offset="0.2121" style="stop-color:#95E0EC"/>
			<stop  offset="0.304" style="stop-color:#B6EAF2"/>
			<stop  offset="0.4021" style="stop-color:#D1F2F7"/>
			<stop  offset="0.5089" style="stop-color:#E5F8FA"/>
			<stop  offset="0.6286" style="stop-color:#F4FCFD"/>
			<stop  offset="0.7717" style="stop-color:#FCFEFF"/>
			<stop  offset="1" style="stop-color:#FFFFFF"/>
		</linearGradient>
		<path fill="url(#SVGID_2_)" d="M144,11.5c-0.4,0-0.9-0.2-1.1-0.5c-0.5-0.6-0.4-1.6,0.2-2.1l9-7.4c0.6-0.5,1.6-0.4,2.1,0.2
			c0.5,0.6,0.4,1.6-0.2,2.1l-9,7.4C144.7,11.4,144.4,11.5,144,11.5z"/>
	</g>
	<g>
		<linearGradient id="SVGID_3_" gradientUnits="userSpaceOnUse" x1="165.0044" y1="14.6212" x2="183.7703" y2="30.2962">
			<stop  offset="0" style="stop-color:#26C0D9"/>
			<stop  offset="0.1132" style="stop-color:#3DC3DA"/>
			<stop  offset="0.298" style="stop-color:#65CADF"/>
			<stop  offset="0.5313" style="stop-color:#95D8E7"/>
			<stop  offset="0.8012" style="stop-color:#CFECF2"/>
			<stop  offset="1" style="stop-color:#FFFFFF"/>
		</linearGradient>
		<path fill="url(#SVGID_3_)" d="M168.1,18.7l0.1,0.1c0.6-0.4,1.4-0.8,2.4-1c1-0.2,2-0.4,3-0.4c1.6,0,3.1,0.3,4.5,0.8
			c1.4,0.6,2.6,1.3,3.6,2.4c1,1,1.8,2.2,2.4,3.7c0.6,1.4,0.9,3,0.9,4.7c0,1.8-0.3,3.4-0.9,4.8c-0.6,1.4-1.4,2.7-2.5,3.7
			c-1.1,1-2.4,1.8-3.9,2.4c-1.5,0.6-3.1,0.9-4.9,0.9c-1.8,0-3.4-0.3-4.9-0.9c-1.5-0.6-2.8-1.4-3.9-2.4c-1.1-1-1.9-2.3-2.5-3.7
			c-0.6-1.4-0.9-3.1-0.9-4.8c0-1.9,0.3-3.7,1-5.4c0.7-1.7,1.5-3.2,2.4-4.8c0,0,10.9-17.4,10.4-16.7c0,0,1.3-1.7,2.7-0.8
			c1.2,0.8,1.1,1.7,0.4,2.8L168.1,18.7z M164.5,28.9c0,1.2,0.2,2.4,0.6,3.4c0.4,1,1,1.9,1.7,2.7c0.7,0.8,1.6,1.4,2.6,1.8
			c1,0.4,2.1,0.7,3.4,0.7c1.2,0,2.4-0.2,3.4-0.7c1-0.4,1.9-1,2.6-1.8c0.7-0.8,1.3-1.7,1.7-2.7c0.4-1,0.6-2.2,0.6-3.4
			c0-1.2-0.2-2.3-0.6-3.4c-0.4-1-0.9-1.9-1.7-2.7c-0.7-0.8-1.6-1.4-2.6-1.8c-1-0.4-2.2-0.6-3.5-0.6c-1.3,0-2.4,0.2-3.5,0.6
			c-1,0.4-1.9,1-2.6,1.8c-0.7,0.8-1.3,1.7-1.7,2.7C164.7,26.6,164.5,27.7,164.5,28.9z"/>
		<linearGradient id="SVGID_4_" gradientUnits="userSpaceOnUse" x1="163.4332" y1="16.586" x2="184.2422" y2="33.8205">
			<stop  offset="0" style="stop-color:#26C0D9"/>
			<stop  offset="4.402065e-02" style="stop-color:#41C8DE"/>
			<stop  offset="0.125" style="stop-color:#6ED5E6"/>
			<stop  offset="0.2121" style="stop-color:#95E0EC"/>
			<stop  offset="0.304" style="stop-color:#B6EAF2"/>
			<stop  offset="0.4021" style="stop-color:#D1F2F7"/>
			<stop  offset="0.5089" style="stop-color:#E5F8FA"/>
			<stop  offset="0.6286" style="stop-color:#F4FCFD"/>
			<stop  offset="0.7717" style="stop-color:#FCFEFF"/>
			<stop  offset="1" style="stop-color:#FFFFFF"/>
		</linearGradient>
		<path fill="url(#SVGID_4_)" d="M180.4,32.8c0,0,0.1-0.3,0.2-0.5c0.4-1,0.6-2.2,0.6-3.4c0-1.2-0.2-2.3-0.6-3.4
			c-0.4-1-0.9-1.9-1.7-2.7c-0.7-0.8-1.6-1.4-2.6-1.8c-1-0.4-2.2-0.6-3.5-0.6c-1.3,0-2.4,0.2-3.5,0.6c-1,0.4-1.9,1-2.6,1.8
			c-0.7,0.8-1.6,2.4-1.7,2.7c-0.1,0.3,0,0-0.1,0.3c-0.9,2.3-4.5,0.9-3.5-1.7c0.3-0.7,0.2-0.5,0.3-0.7c0,0,0.8-1.8,2.3-3.2
			c0.8-0.6,2.9-2.9,8.7-3.2c0.2,0,0.7,0,0.9,0c1.6,0.1,3.2,0.5,4.5,1c1.4,0.6,2.6,1.3,3.6,2.4c1,1,1.8,2.2,2.4,3.7
			c0.6,1.4,0.9,3,0.9,4.7c0,1.8-0.3,3.4-0.9,4.8c-0.1,0.2-0.3,0.7-0.3,0.7C183,36.6,179,35.5,180.4,32.8z"/>
	</g>
</g>
<g>
</g>
<g>
</g>
<g>
</g>
<g>
</g>
<g>
</g>
<g>
</g>
</svg>
